<svg width="24" height="25" viewBox="0 0 24 25" fill="none" xmlns="http://www.w3.org/2000/svg">
<path d="M19.3452 18.6742L15.5279 16.7656C15.3487 16.6761 15.1459 16.6453 14.9483 16.6775C14.7506 16.7097 14.5681 16.8033 14.4266 16.945L12.8281 18.5435C10.531 18.1742 6.91118 14.5553 6.54281 12.2582L8.14132 10.6597C8.28299 10.5182 8.37655 10.3357 8.40875 10.138C8.44095 9.94036 8.41016 9.73759 8.32074 9.55841L6.41207 5.74106C6.34958 5.61594 6.26036 5.50607 6.15072 5.41925C6.04107 5.33242 5.91368 5.27075 5.77757 5.23861C5.64145 5.20647 5.49993 5.20464 5.36303 5.23326C5.22613 5.26187 5.09719 5.32022 4.98533 5.40418L1.16799 8.26719C1.04946 8.35609 0.953264 8.47135 0.887007 8.60387C0.820749 8.73638 0.786255 8.8825 0.786255 9.03066C0.786255 18.1637 6.92264 24.3 16.0556 24.3C16.2038 24.3 16.3499 24.2655 16.4824 24.1993C16.6149 24.133 16.7302 24.0368 16.8191 23.9183L19.6821 20.101C19.7661 19.9891 19.8244 19.8602 19.853 19.7233C19.8816 19.5864 19.8798 19.4448 19.8477 19.3087C19.8155 19.1726 19.7539 19.0452 19.667 18.9356C19.5802 18.8259 19.4704 18.7367 19.3452 18.6742Z" fill="#C59A4B"/>
<path d="M12.937 2.07416C15.1682 2.38349 22.1031 2.07416 22.1031 11.5502" stroke="#C59A4B" stroke-width="2.5"/>
<path d="M11.9781 6.8121C13.3272 6.99912 17.5199 6.8121 17.5199 12.5412" stroke="#C59A4B" stroke-width="2.5"/>
</svg>
