<svg width="80" height="83" viewBox="0 0 80 83" fill="none" xmlns="http://www.w3.org/2000/svg">
<path d="M29.5784 41.5606L6.07564 49.1522L1.49988 78.5826H36.026" stroke="#151515" stroke-width="1.5"/>
<path d="M50.7932 41.5606L74.2959 49.1522L78.8717 78.5826H44.3456" stroke="#151515" stroke-width="1.5"/>
<path d="M28.3303 46.0323L33.9889 61.8472M52.145 46.0323L47.1542 60.6037M38.7055 52.5111L40.4134 55.1349L42.2451 52.5111M38.7055 52.5111L36.9975 49.8873L40.4134 45.2337L44.0769 49.8873L42.2451 52.5111M38.7055 52.5111L33.9889 61.8472M33.9889 61.8472L34.414 63.0354L40.4977 80.0385L46.3214 63.0354L47.1542 60.6037M42.2451 52.5111L47.1542 60.6037" stroke="#151515" stroke-width="1.5"/>
<path d="M55.7883 62.6361H66.1186" stroke="#151515" stroke-width="1.5"/>
<path d="M13.5978 69.7192H23.9281" stroke="#151515" stroke-width="1.5"/>
<path d="M24.8375 20.5483C24.8375 11.8981 31.8499 4.88574 40.5001 4.88574C49.1503 4.88574 56.1627 11.8981 56.1627 20.5483V21.1878V23.836C56.1627 33.1187 50.6205 41.5047 42.0808 45.1437C41.0709 45.574 39.9292 45.574 38.9194 45.1437C30.3797 41.5047 24.8375 33.1187 24.8375 23.836V21.1878V20.5483Z" fill="#F5F5F5" stroke="#151515" stroke-width="1.5"/>
<path d="M43.5424 20.3568V1.22559H37.0798V20.3568" stroke="#151515" stroke-width="1.5"/>
<rect x="37.8054" y="3.8493" width="5.00546" height="2.83477" fill="#F5F5F5"/>
<path d="M19.283 23.5695H61.6086" stroke="#151515" stroke-width="1.5"/>
</svg>
