<svg width="90" height="90" viewBox="0 0 90 90" fill="none" xmlns="http://www.w3.org/2000/svg">
<path fill-rule="evenodd" clip-rule="evenodd" d="M37.8969 24.5395L38.5995 38.2586H51.2132V27.0828C51.2132 26.8377 51.3523 26.6254 51.5499 26.5193L72.2396 14.0376C72.3421 13.9681 72.4665 13.9278 72.5982 13.9278H88.6659C89.0172 13.9278 89.3063 14.2133 89.3063 14.5682V74.7779C89.3063 75.4586 88.75 76.0148 88.0694 76.0148H86.3385C85.9946 77.4639 85.4237 78.8324 84.6443 80.0986L85.8702 81.3244C86.3532 81.8075 86.3532 82.5906 85.8702 83.0736L83.0013 85.9388C82.4816 86.378 81.7644 86.356 81.3033 85.8913L80.0775 84.6654C78.8113 85.4448 77.4428 86.0157 75.9937 86.3597V88.0905C75.9937 88.7712 75.4375 89.3274 74.7568 89.3274H70.7682C70.4279 89.3274 70.1169 89.1883 69.8936 88.9614C69.6668 88.7346 69.5314 88.4272 69.5314 88.0832V86.3523C68.0823 86.0084 66.7137 85.4375 65.4476 84.6581L64.1668 85.9315C63.6472 86.3706 62.93 86.3487 62.4689 85.884L59.6512 83.0663C59.1609 82.576 59.1755 81.7746 59.6512 81.3172L60.8771 80.0913C60.0977 78.8251 59.5268 77.4566 59.1828 76.0075H57.452C56.7713 76.0075 56.2151 75.4513 56.2151 74.7706V73.2593L0.849496 73.2667C0.472592 73.2667 0.176185 72.9556 0.212776 72.5494L2.67913 24.5394C1.06169 23.8588 0.61531 21.7437 1.88141 20.4813C2.33516 20.0275 2.95721 19.7494 3.64152 19.7494H5.25897V16.3828C5.24799 16.3535 4.4832 15.6253 4.13924 14.3373C3.55375 12.1416 4.54176 9.85833 6.4885 8.77513C6.31285 7.67001 6.53607 6.44413 7.08862 5.54033C8.22296 3.5789 10.5576 2.63481 12.7312 3.27885C13.8766 0.505131 17.2322 -0.599989 19.7388 0.892958C22.9517 2.74825 23.0175 7.34063 19.9071 9.30937C21.144 12.8369 18.1361 16.3792 14.484 15.7937C14.0412 15.7205 13.6131 15.5888 13.2106 15.4058C12.8959 15.9913 12.4641 16.5109 11.9371 16.9281V19.7567H14.9743C17.17 19.7567 18.3116 22.4353 16.7345 24.0088C16.5076 24.2357 16.2368 24.4187 15.9367 24.5467L17.1443 48.0759L23.6213 44.1677L24.6313 24.5468C23.0138 23.8662 22.5675 21.7511 23.8335 20.4887C24.2873 20.0349 24.9093 19.7568 25.5937 19.7568H27.2111V16.3902C27.2001 16.361 26.4353 15.6328 26.0914 14.3447C25.5059 12.149 26.4939 9.86574 28.4406 8.78254C28.265 7.67742 28.4882 6.45154 29.0408 5.54774C30.1751 3.58631 32.5098 2.64222 34.6834 3.28626C35.8288 0.512541 39.1843 -0.592579 41.691 0.900368C44.9038 2.75566 44.9697 7.34804 41.8593 9.31678C43.0961 12.8443 40.0882 16.3866 36.4362 15.8011C35.9934 15.7279 35.5653 15.5962 35.1627 15.4132C34.848 15.9987 34.4162 16.5183 33.8892 16.9355V19.7641H36.9265C39.1221 19.7641 40.2638 22.4427 38.6866 24.0162C38.4707 24.2321 38.2006 24.4151 37.8969 24.5395ZM78.5117 41.1158C78.1604 41.1158 77.8713 41.4012 77.8713 41.7562V54.2416C77.8713 54.5929 78.1567 54.882 78.5117 54.882H82.7638C83.1151 54.882 83.4042 54.5965 83.4042 54.2416V41.7562C83.4042 41.4049 83.1188 41.1158 82.7638 41.1158H78.5117ZM82.1234 42.3966H79.152V53.6014H82.1234V42.3966ZM78.5117 20.6679C78.1604 20.6679 77.8713 20.9534 77.8713 21.3083V33.7937C77.8713 34.145 78.1567 34.4341 78.5117 34.4341H82.7638C83.1151 34.4341 83.4042 34.1487 83.4042 33.7937V21.3083C83.4042 20.957 83.1188 20.6679 82.7638 20.6679H78.5117ZM82.1234 21.9487H79.152V33.1535H82.1234V21.9487ZM88.0297 69.5567V15.2084H73.2426L73.2463 56.2366H74.7576C75.0979 56.2366 75.409 56.3756 75.6322 56.6025C75.8591 56.8294 75.9945 57.1368 75.9945 57.4771V59.208C77.4436 59.5519 78.8121 60.1228 80.0783 60.9022L81.3554 59.6288C81.8713 59.186 82.5922 59.2116 83.0569 59.6727L85.8746 62.4903C86.3576 62.9733 86.3576 63.7565 85.8746 64.2395L84.6487 65.4654C85.4281 66.7315 85.999 68.1001 86.343 69.5492L88.0297 69.5567ZM71.9658 56.2366V15.7021L52.4986 27.4484V71.9895H56.2127V70.7966C56.2127 70.4636 56.3518 70.1379 56.5786 69.922C56.8055 69.6951 57.1129 69.5597 57.4569 69.5597H59.1878C59.5317 68.1106 60.1026 66.7421 60.882 65.4759L59.6562 64.2501C59.1658 63.7597 59.1804 62.9583 59.6562 62.5009L62.525 59.6357C63.041 59.1929 63.7619 59.2185 64.2266 59.6796L65.4525 60.9055C66.7186 60.126 68.0872 59.5552 69.5363 59.2112V57.4803C69.5363 56.7997 70.0925 56.2435 70.7731 56.2435L71.9658 56.2366ZM77.6157 61.0705C76.9936 60.8144 76.3423 60.6022 75.6763 60.4448C75.1164 60.3131 74.7176 59.8154 74.7176 59.2372V57.5174H70.8168V59.2372C70.8168 59.8117 70.4215 60.313 69.8581 60.4448C68.5224 60.7595 67.2453 61.2901 66.0963 62.0037C65.6023 62.3111 64.9766 62.2379 64.5704 61.8281L63.3518 60.6095L60.5927 63.3686L61.8113 64.5872C62.2211 64.997 62.2943 65.6191 61.9869 66.1131C61.2697 67.2694 60.7428 68.5429 60.428 69.8748C60.3622 70.1566 60.2085 70.3944 59.9926 70.5628C59.7803 70.7311 59.5096 70.8336 59.2241 70.8336H57.5043V74.7344H59.2241C59.7987 74.7344 60.2999 75.1296 60.4317 75.6931C60.7464 77.0288 61.277 78.3059 61.9906 79.4585C62.298 79.9525 62.2248 80.5782 61.815 80.9844L60.5964 82.203L63.3555 84.9621L64.5741 83.7435C64.9803 83.3337 65.6061 83.2605 66.1 83.5679C67.2564 84.2851 68.5298 84.812 69.8618 85.1268C70.4216 85.2585 70.8205 85.7562 70.8205 86.3344V88.0542H74.7213V86.3344C74.7213 85.7599 75.1165 85.2586 75.68 85.1268C77.0157 84.8121 78.2928 84.2815 79.4454 83.5679C79.9394 83.2605 80.5651 83.3337 80.9713 83.7435L82.1899 84.9621L84.949 82.203L83.7304 80.9844C83.3242 80.5782 83.2474 79.9525 83.5548 79.4585C84.272 78.3021 84.7989 77.0287 85.1137 75.6968C85.2454 75.1369 85.7431 74.7381 86.3213 74.7381H88.0411V70.8372H86.3213C85.7468 70.8372 85.2455 70.442 85.1137 69.8785C84.799 68.5428 84.2684 67.2657 83.5548 66.1131C83.2474 65.6191 83.3206 64.9934 83.7304 64.5872L84.949 63.3686L82.1899 60.6095L80.9713 61.8281C80.5615 62.2379 79.9394 62.3111 79.4454 62.0037C78.8599 61.6451 78.2524 61.334 77.6157 61.0705ZM51.2206 39.5429H34.234V71.9901H51.2206V39.5429ZM3.94596 24.737L3.77031 28.1695H14.8506L14.6749 24.737H3.94596ZM6.54037 19.7531H10.6644V16.6024C10.6644 16.0535 11.162 16.0828 11.7695 15.2924C12.2269 14.7033 12.2489 14.3629 12.3842 14.1581C12.5782 13.8653 12.9734 13.7812 13.2698 13.9751C15.9338 15.7243 19.626 13.4299 18.777 9.9608L18.5282 9.30945C18.3745 8.98743 18.5063 8.59955 18.8283 8.44951C21.4666 7.21633 21.6532 3.47652 19.0991 2.00184C17.0096 0.794232 14.3383 1.92133 13.7492 4.27063C13.6541 4.65119 13.2259 4.86343 12.8636 4.6951C11.1621 3.91567 9.13114 4.55604 8.19436 6.18439C7.72963 6.98944 7.57228 7.97383 7.83575 8.94715L7.83941 8.96179C7.92357 9.26551 7.77354 9.59119 7.47347 9.71926C5.45724 10.5719 4.64851 13.0236 5.75363 14.9118C6.16348 15.6144 6.54404 15.6913 6.54404 16.1341L6.54037 19.7531ZM14.9824 21.0338H3.63888C2.5777 21.0338 2.01413 22.3292 2.78261 23.0977C3.00217 23.3172 3.30223 23.4563 3.63888 23.4563H14.9824C16.0435 23.4563 16.6071 22.1609 15.8386 21.3925C15.6191 21.1692 15.3117 21.0338 14.9824 21.0338ZM3.70446 29.4503L3.53613 32.7656H15.0848L14.9164 29.4503H3.70446ZM3.47026 34.0463L1.52354 71.9859H12.2085L12.2048 51.417C12.2048 51.1718 12.3439 50.9596 12.5415 50.8535L15.9081 48.8225L15.1469 34.0467L3.47026 34.0463ZM21.6719 71.9859L21.5658 59.493C21.5658 59.2588 21.6902 59.0539 21.8732 58.9441L27.761 55.3946C28.1709 55.1457 28.7491 55.4165 28.727 55.9874L28.8368 71.9932H32.9498V40.033L13.4864 51.7793V71.9894L21.6719 71.9859ZM27.5634 71.9859L27.461 57.0667L22.8466 59.8515L22.949 71.9856L27.5634 71.9859ZM37.3266 38.2618L37.1107 34.0463H25.4299L24.9506 43.3702L33.2645 38.3532L33.5938 38.2618L37.3263 38.2581L37.3266 38.2618ZM25.9025 24.7366L25.7269 28.169H36.8071L36.6315 24.7366H25.9025ZM28.4969 19.7526H32.6209V16.6019C32.6209 16.053 33.1186 16.0823 33.726 15.2919C34.1835 14.7028 34.2054 14.3625 34.3408 14.1576C34.5347 13.8648 34.93 13.7807 35.2263 13.9746C37.8904 15.7238 41.5826 13.4294 40.7336 9.96033L40.4848 9.30898C40.3311 8.98696 40.4628 8.59908 40.7848 8.44904C43.4232 7.21586 43.6098 3.47605 41.0556 2.00137C38.9661 0.793764 36.2949 1.92086 35.7057 4.27016C35.6106 4.65072 35.1825 4.86296 34.8202 4.69463C33.1186 3.9152 31.0877 4.55558 30.1509 6.18393C29.6862 6.98898 29.5288 7.97336 29.7923 8.94668L29.796 8.96132C29.8801 9.26504 29.7301 9.59072 29.43 9.71879C27.4138 10.5714 26.6051 13.0231 27.7102 14.9114C28.12 15.614 28.5006 15.6908 28.5006 16.1336L28.4969 19.7526ZM36.9389 21.0334H25.5954C24.5343 21.0334 23.9707 22.3288 24.7392 23.0972C24.9587 23.3168 25.2588 23.4558 25.5954 23.4558H36.9389C38.0001 23.4558 38.5637 22.1604 37.7952 21.392C37.5756 21.1688 37.2682 21.0334 36.9389 21.0334ZM37.0414 32.7647L36.873 29.4493H25.6607L25.4924 32.7647H37.0414Z" fill="#151515"/>
<path d="M66.3259 72.6276L70.7719 77.0736L79.185 68.6606" stroke="#151515" stroke-width="1.5"/>
</svg>
