<svg width="79" height="79" viewBox="0 0 79 79" fill="none" xmlns="http://www.w3.org/2000/svg">
<rect x="0.9151" y="0.975586" width="60.1047" height="43.7744" stroke="#151515" stroke-width="1.5"/>
<path d="M5.90894 23.4259H56.0261" stroke="#151515" stroke-width="1.5"/>
<path d="M6.78711 18.6957V6.08197" stroke="#151515" stroke-width="1.5"/>
<path d="M6.78711 40.7696V28.1559" stroke="#151515" stroke-width="1.5"/>
<path d="M16.4433 18.6957V6.08197" stroke="#151515" stroke-width="1.5"/>
<path d="M16.4433 40.7696V28.1559" stroke="#151515" stroke-width="1.5"/>
<path d="M26.0995 18.6957V6.08197" stroke="#151515" stroke-width="1.5"/>
<path d="M26.0995 40.7696V28.1559" stroke="#151515" stroke-width="1.5"/>
<path d="M35.7557 18.6957V6.08197" stroke="#151515" stroke-width="1.5"/>
<path d="M35.7557 40.7696V28.1559" stroke="#151515" stroke-width="1.5"/>
<path d="M55.068 18.6957V6.08197" stroke="#151515" stroke-width="1.5"/>
<path d="M55.068 40.7696V28.1559" stroke="#151515" stroke-width="1.5"/>
<path d="M45.4119 18.6957V6.08197" stroke="#151515" stroke-width="1.5"/>
<path d="M45.4119 40.7696V28.1559" stroke="#151515" stroke-width="1.5"/>
<rect width="52.4122" height="16.3754" transform="matrix(1 0 0 -1 13.365 47.3312)" fill="#F5F5F5"/>
<rect x="17.796" y="33.6794" width="60.1047" height="43.7744" stroke="#151515" stroke-width="1.5"/>
<path d="M22.7898 56.1298H72.9069" stroke="#151515" stroke-width="1.5"/>
<path d="M23.668 51.3996V38.7858" stroke="#151515" stroke-width="1.5"/>
<path d="M23.668 73.4735V60.8597" stroke="#151515" stroke-width="1.5"/>
<path d="M33.3242 51.3996V38.7858" stroke="#151515" stroke-width="1.5"/>
<path d="M33.3242 73.4735V60.8597" stroke="#151515" stroke-width="1.5"/>
<path d="M42.9804 51.3996V38.7858" stroke="#151515" stroke-width="1.5"/>
<path d="M42.9804 73.4735V60.8597" stroke="#151515" stroke-width="1.5"/>
<path d="M52.6366 51.3996V38.7858" stroke="#151515" stroke-width="1.5"/>
<path d="M52.6366 73.4735V60.8597" stroke="#151515" stroke-width="1.5"/>
<path d="M71.9489 51.3996V38.7858" stroke="#151515" stroke-width="1.5"/>
<path d="M71.9489 73.4735V60.8597" stroke="#151515" stroke-width="1.5"/>
<path d="M62.2928 51.3996V38.7858" stroke="#151515" stroke-width="1.5"/>
<path d="M62.2928 73.4735V60.8597" stroke="#151515" stroke-width="1.5"/>
</svg>
